<?xml version="1.0" standalone="no"?>
<!DOCTYPE svg PUBLIC "-//W3C//DTD SVG 20010904//EN"
 "http://www.w3.org/TR/2001/REC-SVG-20010904/DTD/svg10.dtd">
<svg version="1.0" xmlns="http://www.w3.org/2000/svg"
 width="276.000000pt" height="329.000000pt" viewBox="0 0 276.000000 329.000000"
 preserveAspectRatio="xMidYMid meet">
<metadata>
Created by potrace 1.15, written by Peter Selinger 2001-2017
</metadata>
<g transform="translate(0.000000,329.000000) scale(0.100000,-0.100000)"
fill="#000000" stroke="none">
<path d="M2535 3214 c-11 -8 -25 -12 -31 -10 -8 3 -14 -12 -19 -40 -9 -60 -32
-114 -49 -114 -23 0 -37 26 -30 54 4 16 2 26 -5 26 -5 0 -13 -22 -17 -50 -4
-27 -12 -50 -18 -50 -6 0 -20 -13 -29 -30 -10 -16 -26 -30 -35 -30 -19 0 -66
-50 -131 -139 -42 -57 -61 -68 -61 -36 0 8 9 29 20 47 11 18 20 36 20 40 0 14
-93 -33 -133 -67 -22 -19 -46 -35 -53 -35 -8 0 -11 -6 -8 -15 4 -8 2 -15 -4
-15 -5 0 -13 -10 -17 -22 -6 -23 -7 -22 -17 5 -10 28 -36 35 -55 16 -9 -9 -19
-9 -42 1 -26 10 -35 10 -53 -2 -14 -9 -36 -13 -56 -10 -29 4 -32 8 -32 38 0
18 -4 35 -9 38 -5 4 -7 -11 -4 -34 5 -35 3 -40 -15 -40 -24 0 -34 22 -26 56 5
21 21 29 47 25 4 0 7 4 7 9 0 6 -7 10 -16 10 -13 0 -15 8 -12 38 8 64 -27 186
-52 179 -4 -1 -7 1 -7 5 5 18 -79 60 -122 61 -25 1 -49 7 -53 12 -4 6 -13 11
-20 11 -7 1 -22 3 -33 4 l-20 1 20 10 c15 7 12 8 -13 3 -46 -8 -85 -30 -122
-67 -46 -47 -57 -73 -62 -158 -3 -42 -9 -82 -14 -90 -5 -8 -9 -16 -9 -19 -1
-3 -7 -31 -14 -63 -7 -32 -10 -61 -7 -64 3 -3 17 -5 31 -5 26 0 33 -16 15 -34
-7 -7 -7 -20 1 -41 11 -34 38 -51 50 -32 9 15 79 -26 79 -46 0 -10 14 -13 55
-10 30 1 57 -1 60 -5 8 -12 -26 -42 -40 -36 -13 5 -25 -34 -25 -84 0 -16 -11
-42 -26 -59 -23 -28 -41 -36 -153 -68 -11 -3 -9 -9 8 -26 11 -13 21 -30 21
-39 0 -9 6 -18 14 -21 8 -3 17 -20 21 -37 6 -28 10 -31 38 -28 28 3 32 0 31
-20 -1 -31 15 -28 79 18 30 22 63 40 71 40 18 0 22 -25 6 -35 -6 -4 -21 -23
-34 -43 -18 -29 -36 -41 -81 -57 l-58 -19 -74 79 c-42 43 -89 100 -105 127
-22 36 -34 46 -41 39 -8 -8 -8 -20 1 -44 7 -17 16 -71 19 -119 6 -82 7 -88 28
-88 12 0 37 -10 56 -23 70 -46 174 -78 209 -64 8 3 35 8 60 11 25 2 57 7 73
11 17 4 27 3 27 -3 0 -16 -19 -25 -64 -28 -23 -2 -52 -6 -66 -8 -14 -2 -54 -5
-90 -6 -64 -1 -64 -1 -37 -16 29 -16 36 -34 12 -34 -16 0 -20 -16 -6 -24 5 -3
11 -19 13 -36 4 -26 2 -30 -20 -30 -26 0 -74 26 -134 73 -30 22 -38 36 -38 60
l0 31 -20 -39 c-22 -43 -25 -67 -11 -94 7 -12 4 -41 -10 -92 -11 -41 -28 -128
-39 -194 -11 -66 -24 -138 -29 -160 -6 -22 -11 -66 -11 -97 0 -31 -4 -67 -9
-80 -5 -13 -14 -63 -21 -113 -6 -49 -14 -92 -18 -95 -4 -3 -17 -25 -29 -50
-71 -149 -100 -283 -71 -329 9 -14 8 -36 -4 -97 -19 -92 -14 -134 13 -134 11
0 19 5 19 11 0 6 7 9 15 5 11 -4 15 1 15 17 1 21 1 21 11 3 6 -10 9 -35 6 -55
-5 -28 -4 -32 4 -18 6 11 11 35 12 55 0 21 4 42 8 47 4 6 4 27 0 46 -9 38 -1
59 50 135 14 21 29 49 33 62 4 12 11 22 15 22 8 0 41 72 60 129 6 19 29 66 52
105 23 39 59 125 81 191 22 66 44 125 47 130 4 6 13 28 19 51 13 43 44 80 61
70 5 -4 12 -2 15 3 4 5 -2 11 -11 13 -13 3 -10 6 9 10 46 9 83 -23 122 -104
44 -94 79 -179 101 -247 10 -30 35 -82 57 -115 21 -33 45 -81 52 -106 17 -56
38 -99 79 -160 17 -25 43 -64 59 -87 15 -23 28 -44 28 -46 0 -3 5 -18 11 -34
7 -20 12 -24 18 -14 7 10 13 8 26 -13 9 -14 22 -23 28 -19 6 3 7 1 3 -6 -4 -6
-11 -9 -16 -6 -5 3 -11 1 -15 -5 -3 -5 1 -10 9 -10 9 0 16 -4 16 -10 0 -5 7
-7 15 -4 9 4 15 0 15 -10 0 -22 33 -20 55 4 17 19 17 20 -1 20 -11 0 -24 11
-31 27 -13 32 -27 134 -24 178 4 56 -40 219 -84 312 -35 75 -46 112 -59 205
-29 201 -45 302 -60 368 -8 36 -19 88 -24 115 -6 28 -18 64 -27 82 -17 34 -34
152 -27 188 2 13 16 28 31 35 14 6 37 20 51 32 23 18 25 27 24 97 0 42 -9 112
-20 156 -20 77 -20 82 -3 128 23 64 28 69 118 124 42 26 81 51 86 56 6 4 37
28 70 53 65 49 166 151 260 264 58 69 79 91 137 148 16 15 28 32 28 38 0 7 20
15 45 18 25 4 45 11 45 16 0 12 70 51 80 45 4 -3 7 6 5 21 -2 18 5 30 22 41
29 19 24 30 -6 12 -25 -17 -38 -5 -20 17 13 16 11 17 -14 10 -24 -6 -30 -3
-34 14 -6 24 -39 26 -68 4z"/>
<path d="M290 2922 c0 -48 176 -239 259 -281 20 -10 54 -28 76 -39 22 -11 54
-26 70 -34 17 -7 32 -15 35 -18 9 -10 219 -110 230 -110 6 0 4 13 -6 33 -14
29 -12 28 24 -13 l40 -45 11 42 c8 30 8 67 1 135 -6 51 -8 114 -5 140 6 40 4
47 -13 52 -26 9 -70 -12 -77 -36 -4 -12 -16 -18 -36 -18 -26 0 -29 -3 -29 -30
0 -17 12 -48 26 -70 15 -22 24 -43 21 -47 -4 -3 -33 17 -65 45 -33 29 -62 49
-65 46 -7 -8 -102 45 -137 78 -17 15 -35 28 -40 28 -5 0 -20 15 -34 33 l-26
32 -7 -24 c-6 -23 -7 -23 -19 -6 -22 30 -29 8 -11 -30 23 -48 23 -108 0 -103
-10 2 -17 13 -17 29 -1 25 -43 85 -85 123 -12 11 -21 25 -21 33 0 7 -7 16 -15
19 -8 4 -12 10 -9 15 8 13 -30 11 -44 -3 -9 -9 -12 -8 -12 4 0 9 -4 20 -10 23
-5 3 -10 2 -10 -3z"/>
</g>
</svg>
